#!OML:ASF H:\Terrain\Patient Classification 1\PLAYGROUND\JustinFriday\JustinFriday.ASF
:FULLY-SPECIFIED
:DEGREES
2042
root -0.861906 16.0804 -10.5846 315.357 83.6657 -35.746
lowerback 22.9815 2.00324 2.52593
upperback 2.61177 4.05562 4.74521
thorax -10.1577 2.03537 2.53117
lowerneck 14.2209 -7.12593 -9.37269
upperneck -7.73527 -10.4413 8.17586
head -3.66469 -5.39057 4.68748
rclavicle -1.00386e-014 -5.24792e-014
rhumerus 26.6054 -15.3201 -64.5898
rradius 112.461
rwrist 7.86416
rhand -39.6482 -39.0917
rfingers 7.12502
rthumb -12.6286 -428.69
lclavicle -1.00386e-014 -5.24792e-014
lhumerus 34.1367 8.8371 49.5244
lradius 100.391
lwrist 8.42499
lhand -47.7694 0.844419
lfingers 7.12502
lthumb -20.4468 29.7879
rfemur -22.1987 -6.88475 19.0261
rtibia 79.8685
rfoot -12.0064 -6.6603
rtoes -2.7321
lfemur -22.01 8.2157 -10.3614
ltibia 68.2244
lfoot -20.7894 -8.99435
ltoes -8.62869
2043
root -0.791487 16.1587 -10.5835 316.374 83.483 -34.9991
lowerback 23.5419 2.3086 2.70733
upperback 2.30837 4.53518 4.69639
thorax -10.8024 2.23712 2.20282
lowerneck 13.7948 -7.80731 -9.68673
upperneck -6.92995 -11.336 8.76707
head -3.21542 -5.86748 4.88921
rclavicle 1.3418e-014 -2.78299e-014
rhumerus 23.2159 -15.6511 -64.3904
rradius 113.414
rwrist 11.5654
rhand -36.4488 -41.9133
rfingers 7.12502
rthumb -9.54285 -431.677
lclavicle 1.3418e-014 -2.78299e-014
lhumerus 32.9385 6.13022 51.4237
lradius 100.638
lwrist 7.08299
lhand -48.2135 3.24438
lfingers 7.12502
lthumb -20.8735 32.1414
rfemur -23.2084 -7.05339 19.1241
rtibia 80.4295
rfoot -9.29424 -6.59721
rtoes -1.91052
lfemur -21.3515 8.07007 -10.3522
ltibia 67.218
lfoot -20.3541 -9.40051
ltoes -5.33536
2044
root -0.729884 16.2322 -10.5848 314.721 83.3363 -37.0393
lowerback 23.3661 2.12635 3.01507
upperback 2.47893 4.34052 4.54822
thorax -10.4722 2.13439 1.9312
lowerneck 13.5159 -7.80973 -8.80263
upperneck -7.71572 -11.1575 8.60389
head -3.48542 -5.78033 4.71976
rclavicle -2.68359e-015 -4.13472e-014
rhumerus 21.2738 -15.5745 -65.234
rradius 114.489
rwrist 14.1911
rhand -33.3593 -44.2739
rfingers 7.12502
rthumb -6.56111 -434.152
lclavicle -2.68359e-015 -4.13472e-014
lhumerus 31.9182 4.60165 52.4351
lradius 100.913
lwrist 6.79717
lhand -48.5822 5.29843
lfingers 7.12502
lthumb -21.2278 34.1561
rfemur -24.3379 -7.42362 19.4466
rtibia 80.9323
rfoot -6.7192 -6.37336
rtoes -0.0297967
lfemur -20.9536 7.68552 -10.1875
ltibia 66.1951
lfoot -20.0687 -9.27296
ltoes -3.66483
2045
root -0.685797 16.2853 -10.5738 308.039 82.8393 -44.4196
lowerback 23.0116 1.68156 3.93518
upperback 2.59167 3.97552 4.58155
thorax -10.087 1.93625 1.57059
lowerneck 12.9858 -7.83384 -8.10994
upperneck -8.40215 -11.0193 8.55537
head -3.66242 -5.71526 4.59652
rclavicle 3.08116e-014 3.10104e-014
rhumerus 19.6331 -14.9196 -66.0398
rradius 114.803
rwrist 20.0298
rhand -32.9484 -50.9111
rfingers 7.12502
rthumb -6.16442 -440.801
lclavicle 3.08116e-014 3.10104e-014
lhumerus 30.8328 3.47502 53.0746
lradius 101.279
lwrist 7.46262
lhand -48.8601 5.61389
lfingers 7.12502
lthumb -21.4947 34.4413
rfemur -25.9712 -7.83928 20.7671
rtibia 81.5412
rfoot -4.3831 -6.43792
rtoes 3.89034
lfemur -21.258 7.543 -9.19293
ltibia 65.3227
lfoot -20.0036 -8.74629
ltoes -5.30185
2046
root -0.583607 16.3909 -10.5751 314.718 83.198 -38.0591
lowerback 22.6216 1.7387 2.97
upperback 2.75938 3.73751 4.34241
thorax -9.7274 1.85958 1.9395
lowerneck 12.1419 -7.95344 -8.17177
upperneck -8.57611 -11.1007 8.8699
head -3.54883 -5.7597 4.66464
rclavicle -2.01766e-014 -3.18055e-014
rhumerus 18.0516 -14.4827 -66.3379
rradius 115.538
rwrist 22.8335
rhand -28.9733 -52.1265
rfingers 7.12502
rthumb -2.32588 -442.094
lclavicle -2.01766e-014 -3.18055e-014
lhumerus 29.402 2.44786 54.026
lradius 101.603
lwrist 8.14627
lhand -48.4871 4.48213
lfingers 7.12502
lthumb -21.1364 33.35
rfemur -26.7347 -7.97238 19.8103
rtibia 81.9963
rfoot -2.99011 -6.17765
rtoes 7.46953
lfemur -20.2996 7.6434 -10.3036
ltibia 64.006
lfoot -20.2395 -7.84625
ltoes -6.5199
2047
root -0.488537 16.4727 -10.577 318.998 83.305 -34.0248
lowerback 22.6305 1.73769 2.1761
upperback 2.7832 3.54644 4.41526
thorax -9.75354 1.80101 2.53201
lowerneck 11.2196 -7.979 -8.769
upperneck -8.34516 -11.1437 9.22159
head -3.27036 -5.77162 4.80119
rclavicle -4.57205e-015 -1.27222e-014
rhumerus 16.4035 -14.0723 -66.3465
rradius 116.643
rwrist 23.7905
rhand -23.9939 -50.2396
rfingers 7.12502
rthumb 2.48329 -440.205
lclavicle -4.57205e-015 -1.27222e-014
lhumerus 27.6522 1.52852 55.2666
lradius 101.744
lwrist 8.40761
lhand -47.5705 3.09699
lfingers 7.12502
lthumb -20.2557 32.0608
rfemur -27.4709 -8.36191 19.3679
rtibia 82.442
rfoot -2.42383 -6.43428
rtoes 8.52506
lfemur -19.4585 7.48996 -10.9287
ltibia 62.8102
lfoot -19.9895 -7.7344
ltoes -5.18787
